<svg xmlns="http://www.w3.org/2000/svg" width="16" height="16" viewBox="0 0 16 16" fill="none">
  <g clip-path="url(#clip0_7_65)">
    <path d="M12.8218 7.21875L13.175 6.86562L12.1156 5.80625L10.175 3.86562L9.11559 2.80625L8.76247 3.15937L8.05622 3.86562L1.83122 10.0906C1.50622 10.4156 1.26872 10.8187 1.13747 11.2594L0.0312183 15.0219C-0.0469067 15.2844 0.0249683 15.5687 0.221843 15.7625C0.418718 15.9562 0.699968 16.0281 0.962468 15.9531L4.72184 14.8469C5.16247 14.7156 5.56559 14.4781 5.89059 14.1531L12.1156 7.92812L12.8218 7.21875ZM4.99997 12.4812L4.71559 13.1906C4.59059 13.2875 4.44997 13.3594 4.29997 13.4062L1.85622 14.125L2.57497 11.6844C2.61872 11.5312 2.69372 11.3906 2.79059 11.2687L3.49997 10.9844V11.9844C3.49997 12.2594 3.72497 12.4844 3.99997 12.4844H4.99997V12.4812ZM11.3343 0.584373L10.8843 1.0375L10.1781 1.74375L9.82184 2.09687L10.8812 3.15625L12.8218 5.09687L13.8812 6.15625L14.2343 5.80312L14.9406 5.09687L15.3937 4.64375C16.175 3.8625 16.175 2.59687 15.3937 1.81562L14.1656 0.584373C13.3843 -0.196877 12.1187 -0.196877 11.3375 0.584373H11.3343ZM9.85309 5.83437L5.35309 10.3344C5.15934 10.5281 4.84059 10.5281 4.64684 10.3344C4.45309 10.1406 4.45309 9.82187 4.64684 9.62812L9.14684 5.12812C9.34059 4.93437 9.65934 4.93437 9.85309 5.12812C10.0468 5.32187 10.0468 5.64062 9.85309 5.83437Z" fill="white"/>
  </g>
  <defs>
    <clipPath id="clip0_7_65">
      <rect width="16" height="16" fill="white"/>
    </clipPath>
  </defs>
</svg>