<svg xmlns="http://www.w3.org/2000/svg" width="100" height="115" viewBox="0 0 100 115" fill="none">
  <g clip-path="url(#clip0_2_9)">
    <path d="M55.0446 2.09822C52.2545 -0.69196 47.7232 -0.69196 44.933 2.09822L16.3616 30.6696C13.5714 33.4598 13.5714 37.9911 16.3616 40.7813C19.1518 43.5714 23.683 43.5714 26.4732 40.7813L42.8571 24.3973V71.4286C42.8571 75.3795 46.0491 78.5714 50 78.5714C53.9509 78.5714 57.1429 75.3795 57.1429 71.4286V24.3973L73.5268 40.7813C76.317 43.5714 80.8482 43.5714 83.6384 40.7813C86.4286 37.9911 86.4286 33.4598 83.6384 30.6696L55.067 2.09822H55.0446ZM14.2857 78.5714C14.2857 74.6205 11.0938 71.4286 7.14286 71.4286C3.19196 71.4286 0 74.6205 0 78.5714V92.8571C0 104.688 9.59821 114.286 21.4286 114.286H78.5714C90.4018 114.286 100 104.688 100 92.8571V78.5714C100 74.6205 96.808 71.4286 92.8571 71.4286C88.9062 71.4286 85.7143 74.6205 85.7143 78.5714V92.8571C85.7143 96.808 82.5223 100 78.5714 100H21.4286C17.4777 100 14.2857 96.808 14.2857 92.8571V78.5714Z" fill="#A5A5A5"/>
  </g>
  <defs>
    <clipPath id="clip0_2_9">
      <rect width="100" height="114.286" fill="white"/>
    </clipPath>
  </defs>
</svg>